<svg viewBox="0 0 640 400" data-background-color="#0a1627" preserveAspectRatio="xMidYMid meet" height="400" width="640" xmlns="http://www.w3.org/2000/svg" xmlns:xlink="http://www.w3.org/1999/xlink"><rect width="640" height="400" x="0" y="0" opacity="1" fill="#0a1627" data-fill-palette-color="background" id="background"></rect><g id="tight-bounds" transform="matrix(1,0,0,1,122.24000000000001,76.4)"><svg viewBox="0 0 395.52 247.2" height="247.2" width="395.52"><g><svg></svg></g><g><svg viewBox="0 0 395.52 247.2" height="247.2" width="395.52"><g><path d="M315.247 0l-27.955 92.28-66.531 0 12.341-46.814 7.259-45.466zM240.361 247.2h-92.461l-25.245-92.28 65.748 0 4.963 23.889h4.585l6.298-23.889 64.067 0zM80.273 0h77.561l6.877 40.882 10.678 51.398-69.871 0z" fill="#fe0039" data-fill-palette-color="tertiary"></path></g><g transform="matrix(1,0,0,1,0,99.35582034830429)"><svg viewBox="0 0 395.52 48.48835930339139" height="48.48835930339139" width="395.52"><g><svg viewBox="0 0 395.52 48.48835930339139" height="48.48835930339139" width="395.52"><g><svg viewBox="0 0 395.52 48.48835930339139" height="48.48835930339139" width="395.52"><g><svg viewBox="0 0 395.52 48.48835930339139" height="48.48835930339139" width="395.52"><g><svg viewBox="0 0 395.52 48.48835930339139" height="48.48835930339139" width="395.52"><g><svg viewBox="0 0 395.52 48.48835930339139" height="48.48835930339139" width="395.52"><g transform="matrix(1,0,0,1,0,0)"><svg width="395.52" viewBox="0.45000001788139343 -26.149999618530273 218.1800079345703 26.75" height="48.48835930339139" data-palette-color="#fe0039"><path d="M26.8-25.65L18.85 0 7.6 0 0.45-25.65 9.8-25.65 10.6-20.9 13.15-8.15 13.7-8.15 16.95-20.35 17.75-25.65 26.8-25.65ZM51.55 0L42.15 0 41.6-3.55 37.8-3.65 34.8-3.5 34.25 0 25.2 0 33.15-25.65 44.35-25.65 51.55 0ZM36.4-10.3L38.35-10.25 40.3-10.3 38.85-17.45 38.3-17.45 36.4-10.3ZM71.4-7.55L71.9-6.95 71.34 0 54.7 0 55.15-7.45 54.7-25.65 64.15-25.65 63.59-8.4 63.65-7.55 71.4-7.55ZM84.49-25.65L83.94-8.4 84.34 0 75.04 0 75.49-7.45 75.04-25.65 84.49-25.65ZM115.64-25.8L115.14-8.6 115.49 0 105.39 0 98.79-11.8 98.29-11.8 98.24-9.5 98.59 0 90.19 0 90.64-7.5 90.19-25.65 100.29-25.65 106.89-13.85 107.44-13.85 107.14-25.3 115.64-25.8ZM133.79-7.1L140.79-7.35 141.29-6.75 140.74 0 120.89 0 121.34-7.45 120.89-25.65 141.09-25.65 141.59-25 141.04-18.25 134.29-18.55 130.09-18.55 130.04-16.35 134.04-16.35 138.39-16.5 138.89-15.85 138.34-9.1 133.44-9.25 129.84-9.25 129.79-8.4 129.84-7.1 133.79-7.1ZM168.44-25.65L168.14-12.65 168.09-8.45Q168.04-4.1 164.89-1.78 161.74 0.55 155.89 0.55L155.89 0.55Q150.24 0.55 147.29-1.78 144.34-4.1 144.49-8.45L144.49-8.45 144.59-12.6 144.34-25.65 153.59-25.65 153.19-9.7Q153.14-8.1 153.84-7.43 154.54-6.75 156.29-6.75L156.29-6.75Q158.04-6.75 158.76-7.43 159.49-8.1 159.44-9.7L159.44-9.7 159.04-25.65 168.44-25.65ZM186.88-25.65Q191.53-25.65 194.06-23.48 196.58-21.3 196.58-17.3L196.58-17.3Q196.58-14.2 195.01-11.8 193.43-9.4 190.58-8.08 187.73-6.75 184.03-6.75L184.03-6.75 182.18-6.75 182.48 0 173.18 0 173.63-7.45 173.18-25.65 186.88-25.65ZM185.18-13.15Q186.08-13.85 186.46-14.55 186.83-15.25 186.83-16.4L186.83-16.4Q186.83-17.9 186.06-18.55 185.28-19.2 183.53-19.3L183.53-19.3 182.43-19.2 182.23-13.35 185.18-13.15ZM210.28-26.15Q214.33-26.15 218.18-24.8L218.18-24.8 216.83-17.1 215.53-16.75Q213.78-17.9 211.91-18.6 210.03-19.3 208.98-19.3L208.98-19.3Q207.93-19.3 207.93-18.65L207.93-18.65Q207.93-18 208.66-17.6 209.38-17.2 211.08-16.55L211.08-16.55Q213.33-15.75 214.86-14.93 216.38-14.1 217.51-12.53 218.63-10.95 218.63-8.5L218.63-8.5Q218.63-6.1 217.46-4.05 216.28-2 213.68-0.7 211.08 0.6 207.08 0.6L207.08 0.6Q202.58 0.6 198.03-0.8L198.03-0.8 199.38-8.85 200.23-9.5Q202.18-7.95 204.48-6.95 206.78-5.95 208.28-5.95L208.28-5.95Q209.48-5.95 209.48-6.75L209.48-6.75Q209.48-7.35 208.81-7.73 208.13-8.1 206.43-8.75L206.43-8.75Q204.18-9.55 202.63-10.4 201.08-11.25 199.93-12.88 198.78-14.5 198.78-17L198.78-17Q198.78-19.6 200.13-21.68 201.48-23.75 204.08-24.95 206.68-26.15 210.28-26.15L210.28-26.15Z" opacity="1" transform="matrix(1,0,0,1,0,0)" fill="#fe0039" class="undefined-text-0" data-fill-palette-color="primary" id="text-0"></path></svg></g></svg></g></svg></g></svg></g></svg></g></svg></g></svg></g></svg></g></svg><rect width="395.52" height="247.2" fill="none" stroke="none" visibility="hidden"></rect></g><defs></defs></svg>